<svg width="32" height="33" viewBox="0 0 32 33" fill="none" xmlns="http://www.w3.org/2000/svg">
<path d="M26.6667 16.1349L27.1387 16.6069L27.6094 16.1349L27.1387 15.6629L26.6667 16.1349ZM6.66671 15.4683C6.4899 15.4683 6.32033 15.5385 6.1953 15.6635C6.07028 15.7886 6.00004 15.9581 6.00004 16.1349C6.00004 16.3117 6.07028 16.4813 6.1953 16.6063C6.32033 16.7314 6.4899 16.8016 6.66671 16.8016V15.4683ZM19.1387 24.6069L27.1387 16.6069L26.1947 15.6629L18.1947 23.6629L19.1387 24.6069ZM27.1387 15.6629L19.1387 7.66293L18.1947 8.60693L26.1947 16.6069L27.1387 15.6629ZM26.6667 15.4683L6.66671 15.4683V16.8016L26.6667 16.8016V15.4683Z" fill="currentColor"/>
</svg>
