<svg xmlns="http://www.w3.org/2000/svg" width="22" height="18" viewBox="0 0 22 18" fill="none">
  <path
    d="M9.5 8.75001C9.5 8.3358 9.16421 8.00001 8.75 8.00001C8.33579 8.00001 8 8.3358 8 8.75001V12.75C8 13.1642 8.33579 13.5 8.75 13.5C9.16421 13.5 9.5 13.1642 9.5 12.75V8.75001Z"
    fill="currentColor" />
  <path
    d="M13.5 8.75001C13.5 8.3358 13.1642 8.00001 12.75 8.00001C12.3358 8.00001 12 8.3358 12 8.75001V12.75C12 13.1642 12.3358 13.5 12.75 13.5C13.1642 13.5 13.5 13.1642 13.5 12.75V8.75001Z"
    fill="currentColor" />
  <path fill-rule="evenodd" clip-rule="evenodd"
    d="M14.2804 0.21967C13.9875 -0.0732233 13.5126 -0.0732233 13.2197 0.21967C12.9268 0.512563 12.9268 0.987437 13.2197 1.28033L15.9394 4.00001H5.80331L8.52297 1.28035C8.81586 0.987452 8.81586 0.512578 8.52297 0.219685C8.23008 -0.073208 7.7552 -0.073208 7.46231 0.219685L3.68198 4.00001H0.75C0.335786 4.00001 0 4.3358 0 4.75001C0 5.16422 0.335786 5.50001 0.75 5.50001H1.29431C1.52073 6.35621 1.81357 7.34336 2.15431 8.49198L3.17921 11.9469C3.58637 13.3202 3.83598 14.162 4.27349 14.8466C5.0267 16.0251 6.18365 16.8886 7.52772 17.2756C8.30843 17.5003 9.18649 17.5002 10.6188 17.5H10.8812C12.3135 17.5002 13.1916 17.5003 13.9723 17.2756C15.3163 16.8886 16.4733 16.0251 17.2265 14.8466C17.664 14.162 17.9136 13.3202 18.3208 11.9469L19.3456 8.4922C19.6864 7.34355 19.9793 6.35623 20.2057 5.50001H20.75C21.1642 5.50001 21.5 5.16422 21.5 4.75001C21.5 4.3358 21.1642 4.00001 20.75 4.00001H18.0607L14.2804 0.21967ZM3.59743 8.08246C3.30304 7.09006 3.05126 6.241 2.84786 5.50001H18.6521C18.4487 6.241 18.197 7.09006 17.9026 8.08247L16.92 11.3946C16.4634 12.9337 16.2716 13.5552 15.9626 14.0388C15.4059 14.9098 14.5507 15.5481 13.5573 15.8341C13.0058 15.9929 12.3555 16 10.75 16C9.14454 16 8.49417 15.9929 7.9427 15.8341C6.94926 15.5481 6.09412 14.9098 5.5374 14.0388C5.22836 13.5552 5.03656 12.9337 4.57997 11.3946L3.59743 8.08246Z"
    fill="currentColor" />
</svg>