<svg width="17" height="17" viewBox="0 0 32 32" fill="none" xmlns="http://www.w3.org/2000/svg">
  <path fill-rule="evenodd" clip-rule="evenodd"
    d="M16.0001 1.33337C12.5023 1.33337 9.66676 4.1689 9.66676 7.66671V8.24771C9.15923 8.34789 8.69011 8.49092 8.23958 8.69745C6.899 9.31201 5.76411 10.3002 4.97098 11.5435C4.49093 12.296 4.20607 13.1378 3.98231 14.1647C3.76307 15.1708 3.58886 16.4251 3.36724 18.0208L3.35496 18.1092C3.06975 20.1627 2.8468 21.7679 2.77908 23.0609C2.71032 24.3738 2.7935 25.4678 3.18843 26.4722C3.83393 28.1138 5.02578 29.4826 6.563 30.3478C7.50351 30.8772 8.57569 31.1101 9.8855 31.2226C11.1755 31.3334 12.7962 31.3334 14.8693 31.3334H17.1308C19.204 31.3334 20.8247 31.3334 22.1147 31.2226C23.4245 31.1101 24.4967 30.8772 25.4372 30.3478C26.9744 29.4826 28.1663 28.1138 28.8118 26.4722C29.2067 25.4678 29.2899 24.3738 29.2211 23.0609C29.1534 21.7679 28.9304 20.1626 28.6452 18.1091L28.6329 18.0208C28.4113 16.4251 28.2371 15.1708 28.0179 14.1647C27.7941 13.1378 27.5093 12.296 27.0292 11.5435C26.2361 10.3002 25.1012 9.31201 23.7606 8.69745C23.3101 8.49092 22.841 8.34788 22.3334 8.24771V7.66671C22.3334 4.1689 19.4979 1.33337 16.0001 1.33337ZM10.6668 15.3334C10.1145 15.3334 9.66676 14.8857 9.66676 14.3334V10.3009C9.44959 10.3611 9.25491 10.4321 9.07303 10.5155C8.08216 10.9698 7.24333 11.7001 6.6571 12.6191C6.35449 13.0935 6.13479 13.6803 5.93645 14.5905C5.73545 15.5129 5.57109 16.6914 5.34254 18.3369C5.04934 20.4479 4.83904 21.9684 4.77634 23.1655C4.71416 24.3529 4.80528 25.1187 5.04971 25.7403C5.52682 26.9537 6.40775 27.9654 7.54396 28.6049C8.12607 28.9326 8.87208 29.1282 10.0567 29.2299C11.2511 29.3325 12.786 29.3334 14.9173 29.3334H17.0829C19.2142 29.3334 20.7491 29.3325 21.9435 29.2299C23.1281 29.1282 23.8741 28.9326 24.4562 28.6049C25.5924 27.9654 26.4734 26.9537 26.9505 25.7403C27.1949 25.1187 27.286 24.3529 27.2239 23.1655C27.1612 21.9684 26.9509 20.4479 26.6577 18.3369C26.4291 16.6914 26.2647 15.5129 26.0637 14.5905C25.8654 13.6803 25.6457 13.0935 25.3431 12.6191C24.7569 11.7001 23.918 10.9698 22.9272 10.5155C22.7453 10.4321 22.5506 10.3611 22.3334 10.3009V14.3334C22.3334 14.8857 21.8857 15.3334 21.3334 15.3334C20.7811 15.3334 20.3334 14.8857 20.3334 14.3334V10.04C19.4883 10.0007 18.4452 10 17.0829 10H14.9173C13.555 10 12.5119 10.0007 11.6668 10.04V14.3334C11.6668 14.8857 11.219 15.3334 10.6668 15.3334ZM17.1433 8.00004C18.3964 8.00003 19.4429 8.00002 20.3334 8.03824V7.66671C20.3334 5.27347 18.3933 3.33337 16.0001 3.33337C13.6069 3.33337 11.6668 5.27347 11.6668 7.66671V8.03824C12.5573 8.00002 13.6038 8.00003 14.8569 8.00004H17.1433Z"
    fill="currentColor" />
</svg>